G04*
G04 #@! TF.GenerationSoftware,Altium Limited,Altium Designer,24.3.1 (35)*
G04*
G04 Layer_Color=16711935*
%FSLAX44Y44*%
%MOMM*%
G71*
G04*
G04 #@! TF.SameCoordinates,84ABCF69-F142-4878-B56C-5630D2AD3AC0*
G04*
G04*
G04 #@! TF.FilePolarity,Negative*
G04*
G01*
G75*
%ADD13R,1.7032X1.7032*%
%ADD14C,1.7032*%
%ADD15R,1.7032X1.7032*%
%ADD16C,1.7272*%
%ADD17R,1.7272X1.7272*%
D13*
X-25400Y-215900D02*
D03*
X-425450Y-177800D02*
D03*
X-19050Y-393700D02*
D03*
D14*
X-25400Y-190500D02*
D03*
Y-165100D02*
D03*
Y-139700D02*
D03*
Y-114300D02*
D03*
X-124460Y-43180D02*
D03*
X-99060D02*
D03*
X-73660D02*
D03*
X-48260D02*
D03*
X-596900Y-45720D02*
D03*
X-571500D02*
D03*
X-546100D02*
D03*
X-520700D02*
D03*
X-551180Y-439420D02*
D03*
X-525780D02*
D03*
X-500380D02*
D03*
X-474980D02*
D03*
X-43180D02*
D03*
X-68580D02*
D03*
X-93980D02*
D03*
X-119380D02*
D03*
X-425450Y-203200D02*
D03*
X-393700Y-158750D02*
D03*
X-368300D02*
D03*
X-342900D02*
D03*
X-317500D02*
D03*
X-292100D02*
D03*
X-266700D02*
D03*
X-241300D02*
D03*
X-215900D02*
D03*
X-190500D02*
D03*
X-165100D02*
D03*
X-279400Y-38100D02*
D03*
X-304800D02*
D03*
X-330200D02*
D03*
X-355600D02*
D03*
X-19050Y-292100D02*
D03*
Y-317500D02*
D03*
Y-342900D02*
D03*
Y-368300D02*
D03*
X-317500Y-393700D02*
D03*
X-292100D02*
D03*
X-266700D02*
D03*
X-241300D02*
D03*
X-107950Y-158750D02*
D03*
D15*
X-149860Y-43180D02*
D03*
X-495300Y-45720D02*
D03*
X-576580Y-439420D02*
D03*
X-144780D02*
D03*
X-139700Y-158750D02*
D03*
X-381000Y-38100D02*
D03*
X-342900Y-393700D02*
D03*
X-82550Y-158750D02*
D03*
D16*
X-57150D02*
D03*
X-546100Y-266700D02*
D03*
X-520700D02*
D03*
X-495300D02*
D03*
X-469900D02*
D03*
X-444500D02*
D03*
X-419100D02*
D03*
X-546100Y-241300D02*
D03*
X-520700D02*
D03*
X-495300D02*
D03*
X-469900D02*
D03*
X-444500D02*
D03*
X-419100D02*
D03*
X-393700Y-266700D02*
D03*
Y-241300D02*
D03*
X-368300Y-266700D02*
D03*
X-342900D02*
D03*
X-317500D02*
D03*
X-292100D02*
D03*
X-266700D02*
D03*
X-241300D02*
D03*
X-368300Y-241300D02*
D03*
X-342900D02*
D03*
X-317500D02*
D03*
X-292100D02*
D03*
X-266700D02*
D03*
X-241300D02*
D03*
X-215900Y-266700D02*
D03*
Y-241300D02*
D03*
X-190500Y-266700D02*
D03*
X-165100D02*
D03*
X-139700D02*
D03*
X-114300D02*
D03*
X-88900D02*
D03*
X-63500D02*
D03*
X-190500Y-241300D02*
D03*
X-165100D02*
D03*
X-139700D02*
D03*
X-114300D02*
D03*
X-88900D02*
D03*
D17*
X-63500D02*
D03*
M02*
